HIERARCHY
ROOT joint_0
{
	OFFSET 0.000000 0.000000 0.000000
	CHANNELS 6 Xposition Yposition Zposition Zrotation Yrotation Xrotation 
	JOINT joint_1
	{
		OFFSET 6.004005 -1.946999 100.587036
		CHANNELS 3 Zrotation Yrotation Xrotation
		JOINT joint_2
		{
			OFFSET -4.601006 -0.824997 91.925903
			CHANNELS 3 Zrotation Yrotation Xrotation
			JOINT joint_3
			{
				OFFSET -5.420998 -1.130005 91.774048
				CHANNELS 3 Zrotation Yrotation Xrotation
				JOINT joint_4
				{
					OFFSET 4.308998 -3.777992 123.473999
					CHANNELS 3 Zrotation Yrotation Xrotation
					JOINT joint_5
					{
						OFFSET 25.565002 -6.305008 79.437988
						CHANNELS 3 Zrotation Yrotation Xrotation
						End Site
						{
							OFFSET 0.000000 0.000000 0.000000
						}
					}
				}
				JOINT joint_6
				{
					OFFSET -1.750000 -28.655998 68.557983
					CHANNELS 3 Zrotation Yrotation Xrotation
					JOINT joint_7
					{
						OFFSET -17.692001 -116.544006 -17.244019
						CHANNELS 3 Zrotation Yrotation Xrotation
						JOINT joint_8
						{
							OFFSET 27.063004 -23.640991 -266.895020
							CHANNELS 3 Zrotation Yrotation Xrotation
							JOINT joint_9
							{
								OFFSET 40.722000 -15.761017 -232.488953
								CHANNELS 3 Zrotation Yrotation Xrotation
								End Site
								{
									OFFSET 0.000000 0.000000 0.000000
								}
							}
						}
					}
				}
				JOINT joint_10
				{
					OFFSET 6.593002 24.457001 69.892944
					CHANNELS 3 Zrotation Yrotation Xrotation
					JOINT joint_11
					{
						OFFSET 24.311996 114.920002 -19.872925
						CHANNELS 3 Zrotation Yrotation Xrotation
						JOINT joint_12
						{
							OFFSET 21.081001 15.319000 -268.037964
							CHANNELS 3 Zrotation Yrotation Xrotation
							JOINT joint_13
							{
								OFFSET 27.794006 -8.947001 -234.744080
								CHANNELS 3 Zrotation Yrotation Xrotation
								End Site
								{
									OFFSET 0.000000 0.000000 0.000000
								}
							}
						}
					}
				}
			}
		}
	}
	JOINT joint_14
	{
		OFFSET -6.627998 -80.520004 -98.790039
		CHANNELS 3 Zrotation Yrotation Xrotation
		JOINT joint_15
		{
			OFFSET -43.638000 -13.751999 -502.538971
			CHANNELS 3 Zrotation Yrotation Xrotation
			JOINT joint_16
			{
				OFFSET -39.532999 -9.912994 -398.071007
				CHANNELS 3 Zrotation Yrotation Xrotation
				JOINT joint_17
				{
					OFFSET 174.940004 -34.660995 -75.688002
					CHANNELS 3 Zrotation Yrotation Xrotation
					End Site
					{
						OFFSET 0.000000 0.000000 0.000000
					}
				}
			}
		}
	}
	JOINT joint_18
	{
		OFFSET 12.591003 79.842003 -98.765015
		CHANNELS 3 Zrotation Yrotation Xrotation
		JOINT joint_19
		{
			OFFSET -39.080002 -1.297001 -503.101013
			CHANNELS 3 Zrotation Yrotation Xrotation
			JOINT joint_20
			{
				OFFSET -51.570000 -0.514000 -396.815987
				CHANNELS 3 Zrotation Yrotation Xrotation
				JOINT joint_21
				{
					OFFSET 178.987999 -11.521999 -73.244003
					CHANNELS 3 Zrotation Yrotation Xrotation
					End Site
					{
						OFFSET 0.000000 0.000000 0.000000
					}
				}
			}
		}
	}
}
MOTION
Frames: 10
Frame Time: 0.016667
-2431.736572 905.983887 1096.677979 8.341510 2.420650 0.372996 -0.401793 -2.671387 -3.002757 -0.221415 0.487844 0.576464 -0.302753 -0.719995 -0.479198 -0.388898 -5.536740 -0.386746 0.000000 0.000000 0.000000 4.288227 5.573859 1.316502 -0.092162 5.556378 5.843030 -0.744372 2.318132 -2.923466 0.000000 0.000000 0.000000 2.692861 3.664524 4.667828 -0.058009 4.846823 -2.969030 0.546908 0.077669 5.247962 0.000000 0.000000 0.000000 -0.408571 -0.544495 -0.835774 -0.558118 -0.785513 0.918711 -0.492338 0.717642 -0.070601 0.000000 0.000000 0.000000 -1.913031 -4.838104 4.593623 -1.477270 4.546434 -0.690252 -1.473397 0.343301 -0.575678 0.000000 0.000000 0.000000 
-2423.126953 904.523132 1096.663940 8.315974 2.620006 0.257359 -0.282606 -2.702253 -2.834742 -0.124010 0.496776 0.548531 -0.203935 -0.734864 -0.460262 -0.413938 -5.527439 -0.311258 0.000000 0.000000 0.000000 4.140355 5.719930 1.281723 -0.139207 5.668399 5.922816 -0.931903 3.015646 -3.511169 0.000000 0.000000 0.000000 2.639598 3.640313 4.616272 -0.130483 4.779828 -2.801028 0.596804 0.904659 6.125399 0.000000 0.000000 0.000000 -0.433522 -0.768814 -0.526861 -0.592291 0.312956 0.882280 -0.480099 0.154480 -0.176705 0.000000 0.000000 0.000000 -1.762875 -5.632721 4.446572 -1.402889 6.972660 0.047744 -1.263214 -0.668249 -0.553878 0.000000 0.000000 0.000000 
-2413.803711 902.961548 1096.692993 8.229777 2.775808 0.107990 -0.139380 -2.779745 -2.651719 -0.007869 0.500175 0.517336 -0.086548 -0.741478 -0.442961 -0.432797 -5.403544 -0.215928 0.000000 0.000000 0.000000 3.920463 5.845712 1.254940 -0.194853 5.768462 5.891672 -1.115220 3.748925 -4.028964 0.000000 0.000000 0.000000 2.619344 3.609687 4.512899 -0.199811 4.666159 -2.525592 0.633377 1.716106 6.946112 0.000000 0.000000 0.000000 -0.438106 -0.880150 -0.194944 -0.601201 1.341116 0.877854 -0.440333 -0.360936 -0.261359 0.000000 0.000000 0.000000 -1.610551 -6.395394 4.343569 -1.325659 9.504811 0.795721 -1.023935 -1.562999 -0.512898 0.000000 0.000000 0.000000 
-2403.282471 901.292297 1096.802002 8.060782 2.905506 -0.065430 0.012291 -2.969146 -2.511540 0.117209 0.481736 0.502201 0.038591 -0.734304 -0.436380 -0.439253 -5.165562 -0.118086 0.000000 0.000000 0.000000 3.638546 6.013280 1.289856 -0.253855 5.947385 5.627037 -1.236108 4.323414 -4.305665 0.000000 0.000000 0.000000 2.696260 3.670540 4.401572 -0.240180 4.588905 -2.065354 0.646118 2.299359 7.441746 0.000000 0.000000 0.000000 -0.416556 -0.748233 0.136895 -0.569641 2.022851 0.930401 -0.370267 -0.721340 -0.302222 0.000000 0.000000 0.000000 -1.469465 -6.961115 4.333035 -1.245545 11.771183 1.440481 -0.783294 -2.157497 -0.452826 0.000000 0.000000 0.000000 
-2391.762939 899.539185 1096.962036 7.821090 3.004580 -0.275974 0.180664 -3.252229 -2.375349 0.256037 0.443186 0.492880 0.177411 -0.712123 -0.434518 -0.435877 -4.790502 -0.005215 0.000000 0.000000 0.000000 3.274233 6.191453 1.353705 -0.316983 6.157399 5.183488 -1.323164 4.854799 -4.437333 0.000000 0.000000 0.000000 2.846552 3.763184 4.266533 -0.262156 4.497149 -1.466820 0.645443 2.787905 7.764690 0.000000 0.000000 0.000000 -0.373639 -0.429425 0.481435 -0.504262 2.474353 1.039943 -0.272644 -0.982091 -0.311550 0.000000 0.000000 0.000000 -1.330378 -7.396700 4.399408 -1.158945 13.923946 2.029691 -0.531858 -2.543747 -0.375976 0.000000 0.000000 0.000000 
-2379.856934 897.557861 1097.225952 7.523877 3.011608 -0.432511 0.364245 -3.443655 -2.350223 0.405357 0.405110 0.510335 0.324467 -0.687061 -0.431541 -0.438561 -4.467080 0.107910 0.000000 0.000000 0.000000 2.947079 6.338551 1.408152 -0.373635 6.343504 4.712097 -1.384032 5.320501 -4.472028 0.000000 0.000000 0.000000 2.985190 3.873703 4.141123 -0.263837 4.420215 -0.825068 0.639883 3.094339 7.932952 0.000000 0.000000 0.000000 -0.288530 -0.042930 0.778685 -0.393521 3.024358 1.113432 -0.132584 -1.233933 -0.301017 0.000000 0.000000 0.000000 -1.217012 -7.918270 4.438305 -1.105856 16.490489 2.581229 -0.289612 -2.846243 -0.298503 0.000000 0.000000 0.000000 
-2367.868896 895.194092 1097.697998 7.119010 2.843946 -0.506782 0.574493 -3.397498 -2.437676 0.570991 0.382756 0.519728 0.487199 -0.655149 -0.425284 -0.462893 -4.337591 0.225087 0.000000 0.000000 0.000000 2.757210 6.423594 1.445566 -0.415509 6.475448 4.288286 -1.415383 5.697784 -4.403669 0.000000 0.000000 0.000000 3.054894 4.016674 4.037166 -0.236399 4.390987 -0.161765 0.635100 3.119393 7.913497 0.000000 0.000000 0.000000 -0.122195 0.374217 1.035631 -0.194228 3.896580 1.052961 0.089399 -1.490872 -0.256774 0.000000 0.000000 0.000000 -1.164210 -8.540531 4.455784 -1.128309 19.717211 3.031991 -0.106798 -2.975721 -0.234759 0.000000 0.000000 0.000000 
-2355.568115 892.503906 1098.355957 6.587203 2.524297 -0.549329 0.815646 -3.186351 -2.557536 0.756819 0.371914 0.493279 0.671580 -0.615340 -0.417810 -0.501735 -4.328525 0.349070 0.000000 0.000000 0.000000 2.662689 6.462679 1.475527 -0.446379 6.573446 3.859221 -1.414175 5.999583 -4.215068 0.000000 0.000000 0.000000 3.093501 4.196942 3.943311 -0.180531 4.397521 0.555728 0.629046 2.901851 7.701372 0.000000 0.000000 0.000000 0.115933 0.865860 1.293752 0.094860 4.966723 0.892096 0.392420 -1.696387 -0.168660 0.000000 0.000000 0.000000 -1.157498 -9.161630 4.524541 -1.207936 23.353526 3.324171 -0.005627 -2.767041 -0.182705 0.000000 0.000000 0.000000 
-2343.379395 889.739014 1098.901978 6.172301 2.275240 -0.541017 1.061973 -2.962483 -2.767628 0.926331 0.365101 0.525417 0.832393 -0.591820 -0.417282 -0.532690 -4.381530 0.426953 0.000000 0.000000 0.000000 2.560456 6.477799 1.438261 -0.470012 6.618281 3.533045 -1.410090 6.236986 -4.038772 0.000000 0.000000 0.000000 3.071955 4.319679 3.907093 -0.123263 4.394705 1.155164 0.623626 2.599524 7.453336 0.000000 0.000000 0.000000 0.296772 1.215435 1.506348 0.323189 6.179694 0.761125 0.644951 -1.937512 -0.110260 0.000000 0.000000 0.000000 -1.089224 -10.351717 4.493459 -1.286667 27.719007 3.678067 0.152792 -2.389202 -0.100518 0.000000 0.000000 0.000000 
-2331.754395 886.994080 1099.163940 6.062370 2.290988 -0.516246 1.313540 -2.869454 -3.030051 1.040144 0.385205 0.644991 0.921374 -0.612503 -0.436755 -0.537018 -4.471982 0.406283 0.000000 0.000000 0.000000 2.366632 6.479823 1.263507 -0.484135 6.576801 3.436534 -1.427137 6.433866 -3.974498 0.000000 0.000000 0.000000 2.942221 4.309253 4.001911 -0.082256 4.363612 1.477950 0.621590 2.310549 7.276456 0.000000 0.000000 0.000000 0.321243 1.178872 1.700082 0.370560 7.581031 0.749399 0.737616 -2.279163 -0.140303 0.000000 0.000000 0.000000 -0.854339 -12.732633 4.277813 -1.365962 33.387044 4.370012 0.544010 -1.689484 0.082338 0.000000 0.000000 0.000000 
